<mxfile host="app.diagrams.net" modified="2022-09-09T22:28:10.358Z" agent="5.0 (X11; Linux x86_64) AppleWebKit/537.36 (KHTML, like Gecko) Chrome/100.0.4896.143 YaBrowser/22.5.0.1879 (beta) Yowser/2.5 Safari/537.36" etag="rxHth40Nlb9fKnyqx2H_" version="20.3.0" type="github">
  <diagram id="WVuRQNr7qE9jF-bXGkVP" name="Страница 1">
    <mxGraphModel dx="565" dy="1596" grid="1" gridSize="10" guides="1" tooltips="1" connect="1" arrows="1" fold="1" page="1" pageScale="1" pageWidth="827" pageHeight="1169" math="0" shadow="0">
      <root>
        <mxCell id="0" />
        <mxCell id="1" parent="0" />
        <mxCell id="Flpj3XYx_8FONYMf4IsH-1" value="Game Master" style="shape=umlActor;verticalLabelPosition=bottom;verticalAlign=top;html=1;outlineConnect=0;" vertex="1" parent="1">
          <mxGeometry x="120" y="270" width="30" height="60" as="geometry" />
        </mxCell>
        <mxCell id="Flpj3XYx_8FONYMf4IsH-2" value="Player" style="shape=umlActor;verticalLabelPosition=bottom;verticalAlign=top;html=1;outlineConnect=0;" vertex="1" parent="1">
          <mxGeometry x="120" y="115" width="30" height="60" as="geometry" />
        </mxCell>
        <mxCell id="Flpj3XYx_8FONYMf4IsH-3" value="Start round" style="ellipse;whiteSpace=wrap;html=1;" vertex="1" parent="1">
          <mxGeometry x="240" y="265" width="110" height="70" as="geometry" />
        </mxCell>
        <mxCell id="Flpj3XYx_8FONYMf4IsH-4" value="Start new round" style="ellipse;whiteSpace=wrap;html=1;" vertex="1" parent="1">
          <mxGeometry x="380" y="218" width="110" height="70" as="geometry" />
        </mxCell>
        <mxCell id="Flpj3XYx_8FONYMf4IsH-5" value="Countinue current round" style="ellipse;whiteSpace=wrap;html=1;" vertex="1" parent="1">
          <mxGeometry x="380" y="308" width="110" height="70" as="geometry" />
        </mxCell>
        <mxCell id="Flpj3XYx_8FONYMf4IsH-6" value="Stop round" style="ellipse;whiteSpace=wrap;html=1;" vertex="1" parent="1">
          <mxGeometry x="240" y="400" width="110" height="70" as="geometry" />
        </mxCell>
        <mxCell id="Flpj3XYx_8FONYMf4IsH-7" value="Mark active player as wrong" style="ellipse;whiteSpace=wrap;html=1;" vertex="1" parent="1">
          <mxGeometry x="530" y="308" width="110" height="70" as="geometry" />
        </mxCell>
        <mxCell id="Flpj3XYx_8FONYMf4IsH-8" value="Mark active player as winner" style="ellipse;whiteSpace=wrap;html=1;" vertex="1" parent="1">
          <mxGeometry x="379" y="400" width="110" height="70" as="geometry" />
        </mxCell>
        <mxCell id="Flpj3XYx_8FONYMf4IsH-9" value="Interrupt round" style="ellipse;whiteSpace=wrap;html=1;" vertex="1" parent="1">
          <mxGeometry x="380" y="110" width="110" height="70" as="geometry" />
        </mxCell>
        <mxCell id="Flpj3XYx_8FONYMf4IsH-10" value="Mark itself as Active player" style="ellipse;whiteSpace=wrap;html=1;" vertex="1" parent="1">
          <mxGeometry x="379" y="20" width="110" height="70" as="geometry" />
        </mxCell>
        <mxCell id="Flpj3XYx_8FONYMf4IsH-12" value="" style="endArrow=block;endFill=0;endSize=12;html=1;rounded=0;startArrow=none;startFill=0;exitX=0;exitY=0.5;exitDx=0;exitDy=0;entryX=1;entryY=0;entryDx=0;entryDy=0;" edge="1" parent="1" source="Flpj3XYx_8FONYMf4IsH-4" target="Flpj3XYx_8FONYMf4IsH-3">
          <mxGeometry width="160" relative="1" as="geometry">
            <mxPoint x="250" y="330" as="sourcePoint" />
            <mxPoint x="410" y="330" as="targetPoint" />
          </mxGeometry>
        </mxCell>
        <mxCell id="Flpj3XYx_8FONYMf4IsH-13" value="" style="endArrow=block;endFill=0;endSize=12;html=1;rounded=0;startArrow=none;startFill=0;exitX=0;exitY=0.5;exitDx=0;exitDy=0;entryX=1;entryY=1;entryDx=0;entryDy=0;" edge="1" parent="1" source="Flpj3XYx_8FONYMf4IsH-5" target="Flpj3XYx_8FONYMf4IsH-3">
          <mxGeometry width="160" relative="1" as="geometry">
            <mxPoint x="389.9999999999999" y="263" as="sourcePoint" />
            <mxPoint x="343.9835802522409" y="285.3103991735809" as="targetPoint" />
          </mxGeometry>
        </mxCell>
        <mxCell id="Flpj3XYx_8FONYMf4IsH-15" value="" style="endArrow=blockThin;endFill=1;endSize=12;html=1;rounded=0;dashed=1;exitX=1;exitY=0.5;exitDx=0;exitDy=0;entryX=0;entryY=0.5;entryDx=0;entryDy=0;" edge="1" parent="1" source="Flpj3XYx_8FONYMf4IsH-5" target="Flpj3XYx_8FONYMf4IsH-7">
          <mxGeometry width="160" relative="1" as="geometry">
            <mxPoint x="330" y="390" as="sourcePoint" />
            <mxPoint x="490" y="390" as="targetPoint" />
          </mxGeometry>
        </mxCell>
        <mxCell id="Flpj3XYx_8FONYMf4IsH-16" value="" style="endArrow=blockThin;endFill=1;endSize=12;html=1;rounded=0;dashed=1;exitX=1;exitY=0.5;exitDx=0;exitDy=0;entryX=0;entryY=0.5;entryDx=0;entryDy=0;" edge="1" parent="1" source="Flpj3XYx_8FONYMf4IsH-6" target="Flpj3XYx_8FONYMf4IsH-8">
          <mxGeometry width="160" relative="1" as="geometry">
            <mxPoint x="370" y="343" as="sourcePoint" />
            <mxPoint x="410" y="343" as="targetPoint" />
          </mxGeometry>
        </mxCell>
        <mxCell id="Flpj3XYx_8FONYMf4IsH-17" value="Reset round timer" style="ellipse;whiteSpace=wrap;html=1;" vertex="1" parent="1">
          <mxGeometry x="379" y="480" width="110" height="70" as="geometry" />
        </mxCell>
        <mxCell id="Flpj3XYx_8FONYMf4IsH-18" value="" style="endArrow=blockThin;endFill=1;endSize=12;html=1;rounded=0;dashed=1;exitX=1;exitY=1;exitDx=0;exitDy=0;entryX=0;entryY=0.5;entryDx=0;entryDy=0;" edge="1" parent="1" source="Flpj3XYx_8FONYMf4IsH-6" target="Flpj3XYx_8FONYMf4IsH-17">
          <mxGeometry width="160" relative="1" as="geometry">
            <mxPoint x="360" y="445" as="sourcePoint" />
            <mxPoint x="400.0000000000016" y="445" as="targetPoint" />
          </mxGeometry>
        </mxCell>
        <mxCell id="Flpj3XYx_8FONYMf4IsH-21" value="" style="endArrow=none;startArrow=none;endFill=0;startFill=0;endSize=8;startSize=10;html=1;rounded=0;entryX=0;entryY=0.5;entryDx=0;entryDy=0;exitX=0.5;exitY=0.5;exitDx=0;exitDy=0;exitPerimeter=0;" edge="1" parent="1" source="Flpj3XYx_8FONYMf4IsH-1" target="Flpj3XYx_8FONYMf4IsH-3">
          <mxGeometry width="160" relative="1" as="geometry">
            <mxPoint x="130" y="350" as="sourcePoint" />
            <mxPoint x="290" y="350" as="targetPoint" />
          </mxGeometry>
        </mxCell>
        <mxCell id="Flpj3XYx_8FONYMf4IsH-22" value="" style="endArrow=none;startArrow=none;endFill=0;startFill=0;endSize=8;startSize=10;html=1;rounded=0;entryX=0;entryY=0;entryDx=0;entryDy=0;exitX=0.5;exitY=0.5;exitDx=0;exitDy=0;exitPerimeter=0;" edge="1" parent="1" source="Flpj3XYx_8FONYMf4IsH-1" target="Flpj3XYx_8FONYMf4IsH-6">
          <mxGeometry width="160" relative="1" as="geometry">
            <mxPoint x="145" y="310" as="sourcePoint" />
            <mxPoint x="250" y="310" as="targetPoint" />
          </mxGeometry>
        </mxCell>
        <mxCell id="Flpj3XYx_8FONYMf4IsH-23" value="Answer" style="ellipse;whiteSpace=wrap;html=1;" vertex="1" parent="1">
          <mxGeometry x="240" y="110" width="110" height="70" as="geometry" />
        </mxCell>
        <mxCell id="Flpj3XYx_8FONYMf4IsH-24" value="" style="endArrow=blockThin;endFill=1;endSize=12;html=1;rounded=0;dashed=1;exitX=1;exitY=0.5;exitDx=0;exitDy=0;entryX=0;entryY=0.5;entryDx=0;entryDy=0;" edge="1" parent="1" source="Flpj3XYx_8FONYMf4IsH-23" target="Flpj3XYx_8FONYMf4IsH-9">
          <mxGeometry width="160" relative="1" as="geometry">
            <mxPoint x="500" y="353" as="sourcePoint" />
            <mxPoint x="540" y="353" as="targetPoint" />
          </mxGeometry>
        </mxCell>
        <mxCell id="Flpj3XYx_8FONYMf4IsH-25" value="" style="endArrow=blockThin;endFill=1;endSize=12;html=1;rounded=0;dashed=1;exitX=1;exitY=0;exitDx=0;exitDy=0;entryX=0;entryY=0.5;entryDx=0;entryDy=0;" edge="1" parent="1" source="Flpj3XYx_8FONYMf4IsH-23" target="Flpj3XYx_8FONYMf4IsH-10">
          <mxGeometry width="160" relative="1" as="geometry">
            <mxPoint x="360" y="155" as="sourcePoint" />
            <mxPoint x="389.9999999999999" y="155" as="targetPoint" />
          </mxGeometry>
        </mxCell>
        <mxCell id="Flpj3XYx_8FONYMf4IsH-26" value="Stop timer" style="ellipse;whiteSpace=wrap;html=1;" vertex="1" parent="1">
          <mxGeometry x="520" y="110" width="110" height="70" as="geometry" />
        </mxCell>
        <mxCell id="Flpj3XYx_8FONYMf4IsH-27" value="" style="endArrow=blockThin;endFill=1;endSize=12;html=1;rounded=0;dashed=1;exitX=1;exitY=0.5;exitDx=0;exitDy=0;entryX=0;entryY=0.5;entryDx=0;entryDy=0;" edge="1" parent="1" source="Flpj3XYx_8FONYMf4IsH-9" target="Flpj3XYx_8FONYMf4IsH-26">
          <mxGeometry width="160" relative="1" as="geometry">
            <mxPoint x="360" y="155" as="sourcePoint" />
            <mxPoint x="389.9999999999999" y="155" as="targetPoint" />
          </mxGeometry>
        </mxCell>
        <mxCell id="Flpj3XYx_8FONYMf4IsH-28" value="Light LED" style="ellipse;whiteSpace=wrap;html=1;" vertex="1" parent="1">
          <mxGeometry x="379" y="-70" width="110" height="70" as="geometry" />
        </mxCell>
        <mxCell id="Flpj3XYx_8FONYMf4IsH-29" value="" style="endArrow=blockThin;endFill=1;endSize=12;html=1;rounded=0;dashed=1;exitX=1;exitY=0;exitDx=0;exitDy=0;entryX=0;entryY=1;entryDx=0;entryDy=0;" edge="1" parent="1" source="Flpj3XYx_8FONYMf4IsH-23" target="Flpj3XYx_8FONYMf4IsH-28">
          <mxGeometry width="160" relative="1" as="geometry">
            <mxPoint x="500" y="155" as="sourcePoint" />
            <mxPoint x="530" y="155" as="targetPoint" />
          </mxGeometry>
        </mxCell>
        <mxCell id="Flpj3XYx_8FONYMf4IsH-30" value="" style="endArrow=none;startArrow=none;endFill=0;startFill=0;endSize=8;startSize=10;html=1;rounded=0;entryX=0;entryY=0.5;entryDx=0;entryDy=0;exitX=0.5;exitY=0.5;exitDx=0;exitDy=0;exitPerimeter=0;" edge="1" parent="1" source="Flpj3XYx_8FONYMf4IsH-2" target="Flpj3XYx_8FONYMf4IsH-23">
          <mxGeometry width="160" relative="1" as="geometry">
            <mxPoint x="145" y="310.0000000000002" as="sourcePoint" />
            <mxPoint x="250" y="310.0000000000002" as="targetPoint" />
          </mxGeometry>
        </mxCell>
      </root>
    </mxGraphModel>
  </diagram>
</mxfile>
